<?xml version="1.0" encoding="UTF-8"?>
<svg xmlns="http://www.w3.org/2000/svg" xmlns:xlink="http://www.w3.org/1999/xlink" width="35px" height="35px" viewBox="0 0 35 35" version="1.1">
<g id="surface1">
<path style=" stroke:none;fill-rule:nonzero;fill:rgb(98.039216%,98.823529%,98.431373%);fill-opacity:1;" d="M 24.757812 6.765625 L 10.121094 6.765625 L 11.96875 1.757812 L 22.90625 1.757812 Z M 24.757812 6.765625 "/>
<path style=" stroke:none;fill-rule:nonzero;fill:rgb(5.882353%,5.882353%,5.882353%);fill-opacity:1;" d="M 24.757812 7.398438 L 10.121094 7.398438 C 9.914062 7.398438 9.722656 7.296875 9.601562 7.128906 C 9.480469 6.960938 9.453125 6.742188 9.527344 6.546875 L 11.375 1.539062 C 11.46875 1.289062 11.703125 1.125 11.96875 1.125 L 22.90625 1.125 C 23.171875 1.125 23.410156 1.289062 23.5 1.539062 L 25.351562 6.546875 C 25.421875 6.742188 25.394531 6.960938 25.277344 7.128906 C 25.15625 7.296875 24.960938 7.398438 24.757812 7.398438 Z M 11.03125 6.136719 L 23.851562 6.136719 L 22.464844 2.390625 L 12.410156 2.390625 Z M 11.03125 6.136719 "/>
<path style=" stroke:none;fill-rule:nonzero;fill:rgb(61.56863%,77.64706%,68.627453%);fill-opacity:1;" d="M 22.707031 33.550781 L 11.609375 33.550781 C 9.757812 33.550781 8.242188 32.070312 8.207031 30.21875 L 7.644531 8.03125 L 27.226562 8.03125 L 26.105469 30.296875 C 26.027344 32.117188 24.53125 33.550781 22.707031 33.550781 Z M 22.707031 33.550781 "/>
<path style=" stroke:none;fill-rule:nonzero;fill:rgb(9.803922%,9.803922%,9.803922%);fill-opacity:1;" d="M 22.707031 34.007812 L 11.609375 34.007812 C 10.59375 34.007812 9.636719 33.617188 8.910156 32.90625 C 8.1875 32.195312 7.773438 31.246094 7.75 30.230469 L 7.179688 7.574219 L 27.710938 7.574219 L 26.5625 30.316406 C 26.476562 32.386719 24.78125 34.007812 22.707031 34.007812 Z M 8.113281 8.488281 L 8.660156 30.207031 C 8.679688 30.984375 8.992188 31.710938 9.546875 32.25 C 10.101562 32.796875 10.835938 33.09375 11.609375 33.09375 L 22.707031 33.09375 C 24.289062 33.09375 25.582031 31.855469 25.652344 30.273438 L 26.75 8.488281 Z M 8.113281 8.488281 "/>
<path style=" stroke:none;fill-rule:nonzero;fill:rgb(82.745099%,61.960787%,20%);fill-opacity:1;" d="M 28.269531 8.1875 L 6.605469 8.1875 C 5.847656 8.1875 5.226562 7.5625 5.226562 6.804688 L 5.226562 6.730469 C 5.226562 5.972656 5.847656 5.347656 6.605469 5.347656 L 28.269531 5.347656 C 29.027344 5.347656 29.652344 5.972656 29.652344 6.730469 L 29.652344 6.804688 C 29.652344 7.5625 29.027344 8.1875 28.269531 8.1875 Z M 28.269531 8.1875 "/>
<path style=" stroke:none;fill-rule:nonzero;fill:rgb(6.666667%,6.666667%,6.666667%);fill-opacity:1;" d="M 28.234375 8.644531 L 6.644531 8.644531 C 5.609375 8.644531 4.769531 7.804688 4.769531 6.765625 C 4.769531 5.730469 5.609375 4.890625 6.644531 4.890625 L 28.234375 4.890625 C 29.269531 4.890625 30.109375 5.730469 30.109375 6.765625 C 30.109375 7.804688 29.265625 8.644531 28.234375 8.644531 Z M 6.644531 5.804688 C 6.113281 5.804688 5.679688 6.234375 5.679688 6.765625 C 5.679688 7.300781 6.109375 7.730469 6.644531 7.730469 L 28.234375 7.730469 C 28.761719 7.730469 29.195312 7.300781 29.195312 6.765625 C 29.195312 6.238281 28.765625 5.804688 28.234375 5.804688 Z M 6.644531 5.804688 "/>
<path style=" stroke:none;fill-rule:nonzero;fill:rgb(5.882353%,5.882353%,5.882353%);fill-opacity:1;" d="M 12.121094 27.796875 C 11.867188 27.796875 11.664062 27.59375 11.664062 27.339844 L 11.664062 14.707031 C 11.664062 14.453125 11.867188 14.25 12.121094 14.25 C 12.375 14.25 12.578125 14.453125 12.578125 14.707031 L 12.578125 27.339844 C 12.574219 27.59375 12.375 27.796875 12.121094 27.796875 Z M 12.121094 27.796875 "/>
<path style=" stroke:none;fill-rule:nonzero;fill:rgb(5.882353%,5.882353%,5.882353%);fill-opacity:1;" d="M 15.664062 27.796875 C 15.410156 27.796875 15.207031 27.59375 15.207031 27.339844 L 15.207031 14.707031 C 15.207031 14.453125 15.410156 14.25 15.664062 14.25 C 15.917969 14.25 16.121094 14.453125 16.121094 14.707031 L 16.121094 27.339844 C 16.121094 27.59375 15.917969 27.796875 15.664062 27.796875 Z M 15.664062 27.796875 "/>
<path style=" stroke:none;fill-rule:nonzero;fill:rgb(5.882353%,5.882353%,5.882353%);fill-opacity:1;" d="M 19.210938 27.796875 C 18.960938 27.796875 18.753906 27.59375 18.753906 27.339844 L 18.753906 14.707031 C 18.753906 14.453125 18.960938 14.25 19.210938 14.25 C 19.464844 14.25 19.671875 14.453125 19.671875 14.707031 L 19.671875 27.339844 C 19.667969 27.59375 19.460938 27.796875 19.210938 27.796875 Z M 19.210938 27.796875 "/>
<path style=" stroke:none;fill-rule:nonzero;fill:rgb(5.882353%,5.882353%,5.882353%);fill-opacity:1;" d="M 22.757812 27.796875 C 22.503906 27.796875 22.296875 27.59375 22.296875 27.339844 L 22.296875 14.707031 C 22.296875 14.453125 22.503906 14.25 22.757812 14.25 C 23.007812 14.25 23.214844 14.453125 23.214844 14.707031 L 23.214844 27.339844 C 23.214844 27.59375 23.007812 27.796875 22.757812 27.796875 Z M 22.757812 27.796875 "/>
</g>
</svg>
