<svg width="162" height="50" viewBox="0 0 162 50" fill="none" xmlns="http://www.w3.org/2000/svg">
<path d="M157.191 39.55C156.061 39.55 155.098 39.1528 154.304 38.3583C153.54 37.5639 153.158 36.6014 153.158 35.4708C153.158 34.3403 153.54 33.3778 154.304 32.5833C155.098 31.7889 156.061 31.3917 157.191 31.3917C158.322 31.3917 159.284 31.7889 160.079 32.5833C160.873 33.3778 161.27 34.3403 161.27 35.4708C161.27 36.6014 160.873 37.5639 160.079 38.3583C159.284 39.1528 158.322 39.55 157.191 39.55Z" fill="white"/>
<path d="M127.44 50V45.0042H133.811L136.332 38.9542L124.232 11.5H130.74L139.403 31.6667H139.632L147.974 11.5H154.207L142.474 39L139.953 44.9583C139.281 46.5472 138.547 47.7847 137.753 48.6708C136.989 49.5569 135.721 50 133.949 50H127.44Z" fill="white"/>
<path d="M114.051 39V0.5H120.284V39H114.051Z" fill="white"/>
<path d="M83.6358 39V0.5H89.8691V22.775H90.0525L102.198 11.5H109.715L97.5233 22.5L110.723 39H103.298L93.215 26.3042L89.8691 29.0542V39H83.6358Z" fill="white"/>
<path d="M67.0269 39.55C63.1158 39.55 60.0297 38.7403 57.7686 37.1208C55.5075 35.4708 54.27 33.1792 54.0561 30.2458H60.1519C60.3658 31.7431 61.0533 32.8583 62.2144 33.5917C63.3755 34.325 65.0561 34.6917 67.2561 34.6917C71.045 34.6917 72.9394 33.5611 72.9394 31.3C72.9394 30.3833 72.6491 29.6653 72.0686 29.1458C71.488 28.6264 70.5255 28.2445 69.1811 28L63.0853 26.8542C57.7991 25.8458 55.1561 23.3403 55.1561 19.3375C55.1561 16.7708 56.1644 14.7389 58.1811 13.2417C60.1978 11.7139 62.963 10.95 66.4769 10.95C70.0214 10.95 72.8325 11.7292 74.9103 13.2875C77.0186 14.8458 78.195 17.0153 78.4394 19.7958H72.4353C72.0991 18.3903 71.4269 17.3514 70.4186 16.6792C69.4408 16.007 68.02 15.6708 66.1561 15.6708C64.5061 15.6708 63.238 15.9458 62.3519 16.4958C61.4658 17.0458 61.0228 17.8403 61.0228 18.8792C61.0228 19.6431 61.2978 20.2695 61.8478 20.7583C62.4283 21.2167 63.3297 21.5681 64.5519 21.8125L70.6936 23.0042C73.4741 23.5236 75.5061 24.425 76.7894 25.7083C78.0728 26.9611 78.7144 28.657 78.7144 30.7958C78.7144 33.5458 77.7061 35.7 75.6894 37.2583C73.6728 38.7861 70.7853 39.55 67.0269 39.55Z" fill="white"/>
<path d="M32.4422 39.5042C29.2949 39.5042 26.8047 38.725 24.9713 37.1667C23.1685 35.6083 22.2672 33.5611 22.2672 31.025C22.2672 28.3667 23.1838 26.3042 25.0172 24.8375C26.8505 23.3708 29.4783 22.6375 32.9005 22.6375H41.6088V21.4917C41.6088 17.825 39.531 15.9917 35.3755 15.9917C31.8616 15.9917 29.7533 17.2597 29.0505 19.7958H22.8172C23.3366 16.9542 24.681 14.7695 26.8505 13.2417C29.0505 11.7139 31.9074 10.95 35.4213 10.95C39.363 10.95 42.3727 11.8667 44.4505 13.7C46.5283 15.5028 47.5672 18.1306 47.5672 21.5833V32.7208H50.5463V39H44.0838V34.6458H42.1588C41.2116 36.1736 39.9283 37.3653 38.3088 38.2208C36.6894 39.0764 34.7338 39.5042 32.4422 39.5042ZM33.3588 34.6458C34.9171 34.6458 36.3227 34.3403 37.5755 33.7292C38.8283 33.1181 39.806 32.3083 40.5088 31.3C41.2422 30.2611 41.6088 29.1153 41.6088 27.8625V26.9917H33.2213C29.8602 26.9917 28.1797 28.2445 28.1797 30.75C28.1797 31.9722 28.638 32.9347 29.5547 33.6375C30.4713 34.3097 31.7394 34.6458 33.3588 34.6458Z" fill="white"/>
<path d="M11.0917 39C9.41112 39 8.09723 38.5722 7.15001 37.7167C6.23335 36.8611 5.77501 35.5625 5.77501 33.8208V16.3583H0.825012V11.5H5.82085V3.25H11.9625V11.5H18.7917V16.3583H12.0083V34.0958H19.4792V39H11.0917Z" fill="white"/>
</svg>
