<svg width="148" height="50" viewBox="0 0 148 50" fill="none" xmlns="http://www.w3.org/2000/svg">
<path d="M147.726 35.1172C147.726 36.0286 147.398 36.8216 146.742 37.4961C146.085 38.1706 145.274 38.5078 144.308 38.5078C143.36 38.5078 142.558 38.1797 141.902 37.5234C141.245 36.8672 140.917 36.0651 140.917 35.1172C140.917 34.1693 141.245 33.3763 141.902 32.7383C142.558 32.082 143.36 31.7539 144.308 31.7539C145.274 31.7539 146.085 32.0911 146.742 32.7656C147.398 33.4219 147.726 34.2057 147.726 35.1172Z" fill="white"/>
<path d="M138.483 15.5938L135.858 15.8945L126.178 39.4648C124.574 43.4023 123.052 46.0911 121.612 47.5312C120.317 48.8255 118.859 49.4727 117.237 49.4727C116.106 49.4727 115.195 49.181 114.502 48.5977C113.864 48.0508 113.545 47.3763 113.545 46.5742C113.545 45.4622 114.083 44.4505 115.158 43.5391L119.889 45.6992C121.438 44.168 122.851 41.5521 124.127 37.8516L115.569 15.8945L112.78 15.5938V13.625H123.936V15.5938L121.502 15.7305C120.974 15.7669 120.709 16.0404 120.709 16.5508C120.709 16.6784 120.727 16.7786 120.764 16.8516L126.615 31.6992L132.576 16.8516C132.686 16.6146 132.668 16.3776 132.522 16.1406C132.394 15.9036 132.184 15.7669 131.893 15.7305L129.514 15.5938V13.625H138.483V15.5938Z" fill="white"/>
<path d="M112.04 37.9062H99.7628V35.9375L102.47 35.8008C102.67 35.7826 102.898 35.6641 103.153 35.4453C103.427 35.2083 103.564 34.9714 103.564 34.7344V4.38281H99.7355V2.71484L106.161 0.773438H108.239V34.7344C108.239 34.9714 108.358 35.2083 108.595 35.4453C108.85 35.6641 109.087 35.7826 109.306 35.8008L112.04 35.9375V37.9062Z" fill="white"/>
<path d="M99.0508 37.9062H90.9844V35.9375L84.6953 26.4766H81.8516V34.6797C81.8516 35.3724 82.207 35.7461 82.918 35.8008L85.0781 35.9375V37.9062H73.6484V35.9375L76.1367 35.8008C76.8294 35.7461 77.1758 35.3724 77.1758 34.6797V4.38281H73.3477V2.71484L79.8008 0.773438H81.8516V25H82.8633L90.2734 16.6328C90.4193 16.487 90.4466 16.3229 90.3555 16.1406C90.2826 15.9401 90.1276 15.8216 89.8906 15.7852L87.8125 15.5938V13.625H97.6016V15.5938L94.375 15.9219L87.7305 23.0312L96.3711 35.6367L99.0508 35.9375V37.9062Z" fill="white"/>
<path d="M72.0341 30.6328C72.0341 32.4375 71.6057 33.9232 70.7489 35.0898C69.9104 36.2383 68.7619 37.0951 67.3036 37.6602C65.8453 38.2253 64.2137 38.5078 62.4091 38.5078C61.0966 38.5078 59.857 38.4076 58.6903 38.207C57.5236 37.9883 56.4299 37.6784 55.4091 37.2773V30.5234H57.9794L58.5809 34.8438C59.9846 35.7734 61.4794 36.2383 63.0653 36.2383C64.3049 36.2383 65.3713 35.8828 66.2645 35.1719C67.1578 34.4427 67.6044 33.4857 67.6044 32.3008C67.6044 31.043 67.0666 29.9948 65.9911 29.1562C65.6994 28.9375 65.1708 28.6276 64.4051 28.2266C63.6578 27.8255 62.6734 27.3242 61.452 26.7227C59.4286 25.7201 58.0249 24.8177 57.2411 24.0156C56.2567 22.9948 55.7645 21.7643 55.7645 20.3242C55.7645 18.6289 56.1656 17.2435 56.9677 16.168C57.788 15.0924 58.8817 14.2995 60.2489 13.7891C61.6343 13.2786 63.1656 13.0234 64.8426 13.0234C67.3765 13.0234 69.5184 13.4062 71.2684 14.1719V20.1328H68.6708L68.2606 16.5781C67.258 15.7943 65.982 15.4023 64.4325 15.4023C61.7163 15.4023 60.3583 16.5326 60.3583 18.793C60.3583 19.9232 60.7593 20.8346 61.5614 21.5273C61.926 21.8372 62.4729 22.1927 63.202 22.5938C63.9312 22.9948 64.8427 23.4596 65.9364 23.9883C66.9208 24.444 67.7775 24.8906 68.5067 25.3281C69.2541 25.7656 69.8557 26.2214 70.3114 26.6953C71.4598 27.8802 72.0341 29.1927 72.0341 30.6328Z" fill="white"/>
<path d="M53.9041 37.9062H46.4392L45.7556 34.9258C42.5655 37.3138 39.7673 38.5078 37.3611 38.5078C35.5382 38.5078 33.9887 37.9062 32.7126 36.7031C31.4548 35.5 30.8259 33.832 30.8259 31.6992C30.8259 30.1497 31.3181 28.8555 32.3025 27.8164C33.2869 26.7591 34.5447 25.8932 36.0759 25.2188C37.6254 24.5443 39.2569 24.0065 40.9705 23.6055C42.7022 23.1862 44.2973 22.8307 45.7556 22.5391V20.3516C45.7556 17.0339 44.2061 15.375 41.1072 15.375C39.8129 15.375 38.6189 15.5938 37.5251 16.0312V20.4062H33.8611C32.6033 20.4062 31.9744 19.9232 31.9744 18.957C31.9744 17.8633 32.3025 16.9427 32.9587 16.1953C33.6332 15.4297 34.4991 14.819 35.5564 14.3633C36.6137 13.8893 37.753 13.5521 38.9744 13.3516C40.1957 13.1328 41.3624 13.0234 42.4744 13.0234C47.7791 13.0234 50.4314 15.5391 50.4314 20.5703V34.6797C50.4314 35.3906 50.7869 35.7643 51.4978 35.8008L53.9041 35.9375V37.9062ZM45.7556 33.1484V24.4531C41.6358 25.4922 38.8468 26.6133 37.3884 27.8164C36.3494 28.6914 35.8298 29.8763 35.8298 31.3711C35.8298 32.4648 36.158 33.4128 36.8142 34.2148C37.5434 35.1081 38.4639 35.5547 39.5759 35.5547C41.253 35.5547 43.3129 34.7526 45.7556 33.1484Z" fill="white"/>
<path d="M29.4303 12.1484H26.4498L25.7389 7.41797C25.6477 6.83464 25.3652 6.54297 24.8912 6.54297H17.6725V34.4336C17.6725 35.1263 18.028 35.5 18.7389 35.5547L21.9655 35.7461V37.9062H8.29358V35.7461L11.5201 35.5547C12.2311 35.5 12.5865 35.1263 12.5865 34.4336V6.54297H5.31311C4.83915 6.54297 4.5566 6.83464 4.46545 7.41797L3.78186 12.1484H0.856079V4.08203H29.4303V12.1484Z" fill="white"/>
</svg>
