<svg width="80" height="80" viewBox="0 0 80 80" fill="none" xmlns="http://www.w3.org/2000/svg">
<rect width="80" height="80" rx="12" fill="#875EE7"/>
<path d="M62.8465 56.6855C62.8465 57.7923 62.448 58.7552 61.6512 59.5742C60.8543 60.3932 59.8693 60.8027 58.6961 60.8027C57.545 60.8027 56.5711 60.4043 55.7742 59.6074C54.9773 58.8105 54.5789 57.8366 54.5789 56.6855C54.5789 55.5345 54.9773 54.5716 55.7742 53.7969C56.5711 53 57.545 52.6016 58.6961 52.6016C59.8693 52.6016 60.8543 53.0111 61.6512 53.8301C62.448 54.627 62.8465 55.5788 62.8465 56.6855Z" fill="white"/>
<path d="M56.6973 28.7949H53.0781L52.2148 23.0508C52.1042 22.3424 51.7611 21.9883 51.1855 21.9883H42.4199V55.8555C42.4199 56.6966 42.8516 57.1504 43.7148 57.2168L47.6328 57.4492V60.0723H31.0312V57.4492L34.9492 57.2168C35.8125 57.1504 36.2441 56.6966 36.2441 55.8555V21.9883H27.4121C26.8366 21.9883 26.4935 22.3424 26.3828 23.0508L25.5527 28.7949H22V19H56.6973V28.7949Z" fill="white"/>
</svg>
