<svg width="80" height="80" viewBox="0 0 80 80" fill="none" xmlns="http://www.w3.org/2000/svg">
<rect width="80" height="80" rx="12" fill="#875EE7"/>
<path d="M57.2746 61C55.9665 61 54.8529 60.5404 53.9337 59.6212C53.0499 58.702 52.6079 57.5884 52.6079 56.2803C52.6079 54.9722 53.0499 53.8586 53.9337 52.9394C54.8529 52.0202 55.9665 51.5606 57.2746 51.5606C58.5827 51.5606 59.6963 52.0202 60.6155 52.9394C61.5347 53.8586 61.9943 54.9722 61.9943 56.2803C61.9943 57.5884 61.5347 58.702 60.6155 59.6212C59.6963 60.5404 58.5827 61 57.2746 61Z" fill="white"/>
<path d="M37.8788 60.3636C35.9343 60.3636 34.4141 59.8687 33.3182 58.8788C32.2576 57.8889 31.7273 56.3864 31.7273 54.3712V34.1667H26V28.5455H31.7803V19H38.8864V28.5455H46.7879V34.1667H38.9394V54.6894H47.5833V60.3636H37.8788Z" fill="white"/>
</svg>
